<?xml version="1.0" encoding="iso-8859-1"?>
<!-- Generator: Adobe Illustrator 25.4.1, SVG Export Plug-In . SVG Version: 6.00 Build 0)  -->
<svg version="1.1" xmlns="http://www.w3.org/2000/svg" xmlns:xlink="http://www.w3.org/1999/xlink" x="0px" y="0px"
	 viewBox="0 0 504 360" style="enable-background:new 0 0 504 360;" xml:space="preserve">
<desc>logo</desc>
<metadata><?xpacket begin="﻿" id="W5M0MpCehiHzreSzNTczkc9d"?>
<x:xmpmeta xmlns:x="adobe:ns:meta/" x:xmptk="Adobe XMP Core 7.0-c000 79.dcf59f3, 2021/07/24-00:42:40        ">
   <rdf:RDF xmlns:rdf="http://www.w3.org/1999/02/22-rdf-syntax-ns#">
      <rdf:Description rdf:about=""
            xmlns:dc="http://purl.org/dc/elements/1.1/"
            xmlns:xmp="http://ns.adobe.com/xap/1.0/"
            xmlns:xmpMM="http://ns.adobe.com/xap/1.0/mm/"
            xmlns:stEvt="http://ns.adobe.com/xap/1.0/sType/ResourceEvent#"
            xmlns:photoshop="http://ns.adobe.com/photoshop/1.0/"
            xmlns:Iptc4xmpCore="http://iptc.org/std/Iptc4xmpCore/1.0/xmlns/"
            xmlns:xmpRights="http://ns.adobe.com/xap/1.0/rights/">
         <dc:creator>
            <rdf:Seq>
               <rdf:li>Vladimir Biryukov</rdf:li>
            </rdf:Seq>
         </dc:creator>
         <dc:description>
            <rdf:Alt>
               <rdf:li xml:lang="x-default">logo</rdf:li>
            </rdf:Alt>
         </dc:description>
         <dc:subject>
            <rdf:Bag>
               <rdf:li>logo</rdf:li>
               <rdf:li>zenmedia</rdf:li>
            </rdf:Bag>
         </dc:subject>
         <xmp:MetadataDate>2023-01-18T12:00:57+01:00</xmp:MetadataDate>
         <xmpMM:InstanceID>xmp.iid:05de995a-5f2a-cd4c-9296-ffe3cfb4f6f7</xmpMM:InstanceID>
         <xmpMM:DocumentID>xmp.did:e5cf5e53-692a-624a-8622-eec763ac1152</xmpMM:DocumentID>
         <xmpMM:OriginalDocumentID>xmp.did:e5cf5e53-692a-624a-8622-eec763ac1152</xmpMM:OriginalDocumentID>
         <xmpMM:History>
            <rdf:Seq>
               <rdf:li>
                  <rdf:Description>
                     <stEvt:action>saved</stEvt:action>
                     <stEvt:instanceID>xmp.iid:e5cf5e53-692a-624a-8622-eec763ac1152</stEvt:instanceID>
                     <stEvt:when>2023-01-18T10:06:30+01:00</stEvt:when>
                     <stEvt:softwareAgent>Adobe Bridge 2021 (Windows)</stEvt:softwareAgent>
                     <stEvt:changed>/metadata</stEvt:changed>
                  </rdf:Description>
               </rdf:li>
               <rdf:li>
                  <rdf:Description>
                     <stEvt:action>saved</stEvt:action>
                     <stEvt:instanceID>xmp.iid:05de995a-5f2a-cd4c-9296-ffe3cfb4f6f7</stEvt:instanceID>
                     <stEvt:when>2023-01-18T12:00:57+01:00</stEvt:when>
                     <stEvt:softwareAgent>Adobe Bridge 2021 (Windows)</stEvt:softwareAgent>
                     <stEvt:changed>/metadata</stEvt:changed>
                  </rdf:Description>
               </rdf:li>
            </rdf:Seq>
         </xmpMM:History>
         <photoshop:AuthorsPosition>owner</photoshop:AuthorsPosition>
         <photoshop:Headline>ZEN-Media</photoshop:Headline>
         <Iptc4xmpCore:CreatorContactInfo>
            <rdf:Description>
               <Iptc4xmpCore:CiAdrCity>Vienna</Iptc4xmpCore:CiAdrCity>
               <Iptc4xmpCore:CiAdrRegion>Vienna</Iptc4xmpCore:CiAdrRegion>
               <Iptc4xmpCore:CiAdrPcode>1060</Iptc4xmpCore:CiAdrPcode>
               <Iptc4xmpCore:CiAdrCtry>Austria</Iptc4xmpCore:CiAdrCtry>
               <Iptc4xmpCore:CiEmailWork>admins@zenmedia.live</Iptc4xmpCore:CiEmailWork>
            </rdf:Description>
         </Iptc4xmpCore:CreatorContactInfo>
         <xmpRights:Marked>True</xmpRights:Marked>
      </rdf:Description>
   </rdf:RDF>
</x:xmpmeta>
                                                                                                    
                                                                                                    
                                                                                                   
<?xpacket end="w"?></metadata>
<g id="Background_xA0_Image_00000140734414184443623860000001515904447258263479_">
	
		<image style="overflow:visible;" width="2100" height="1500" id="Background_xA0_Image" xlink:href="D140A0C9.jpg"  transform="matrix(0.24 0 0 0.24 0 0)">
	</image>
</g>
<g id="Rectangle_1_00000120556454380427005650000016382518964139272870_" style="enable-background:new    ;">
</g>
<g id="Frame_2_00000011020252997496200360000001902706158112607383_">
</g>
<g id="Logo_00000175320205884402312930000013976524688123962035_">
	<g id="Sector_00000031170680092810005950000005407856915834902679_">
		<g id="Frame_4_00000002378128492676977340000013087134861704253856_">
		</g>
		<g id="Frame_5_00000028293517219296426520000005990588928719646366_">
		</g>
		<g id="Frame_6_00000070808576582099052590000003896591679113008290_">
		</g>
		<g id="Frame_7_00000119104533966052366300000007701676424133854888_">
		</g>
		<g id="Frame_8_00000009583323632617358800000012957657347984755114_">
		</g>
		<g id="Frame_9_00000120549748536929063460000011455212580872365714_">
		</g>
	</g>
	<g id="Sector_2_00000068655327861697360520000017584524568855935653_">
		<g id="Frame_4_00000033346343584738542000000015144932813137629835_">
		</g>
		<g id="Frame_5_00000181079012582991401350000017645493964547774123_">
		</g>
		<g id="Frame_6_00000005260943386308259630000004014055768138899099_">
		</g>
		<g id="Frame_7_00000125572237977741772940000015656480833166185146_">
		</g>
		<g id="Frame_8_00000060752423972557508220000015783180861294255011_">
		</g>
		<g id="Frame_9_00000020368038215668620300000004514122132361868700_">
		</g>
	</g>
	<g id="Sector_3_00000000942658731292464400000015774063375092442250_">
		<g id="Frame_4_00000072251549793462028800000012787542365597783734_">
		</g>
		<g id="Frame_5_00000011721298576808657880000002728100629099219614_">
		</g>
		<g id="Frame_6_00000043423328551035592790000016193238140115257741_">
		</g>
		<g id="Frame_7_00000157304527836939631900000013510050445517760393_">
		</g>
		<g id="Frame_8_00000158738999715578580010000013845750656786008967_">
		</g>
		<g id="Frame_9_00000096055379690505984050000003927033752349929383_">
		</g>
	</g>
	<g id="Sector_4_00000136385306735640684700000003546950890970641320_">
		<g id="Frame_4_00000155829261120838808320000011612537240101484436_">
		</g>
		<g id="Frame_5_00000031209074423011769900000005178845530114599096_">
		</g>
		<g id="Frame_6_00000112617774848697403670000007527532054090779052_">
		</g>
		<g id="Frame_7_00000067225395032543201550000014990823872130478516_">
		</g>
		<g id="Frame_8_00000168083159081409374630000005373191557236765601_">
		</g>
		<g id="Frame_9_00000095297085395775349760000009500738157956365460_">
		</g>
		<g>
			<path style="fill:#30E66C;" d="M235.33,127.208c8.946,0,16.198-7.252,16.198-16.198s-7.252-16.198-16.198-16.198
				c-8.946,0-16.198,7.252-16.198,16.198S226.384,127.208,235.33,127.208z M200.928,67.353c-5.112,0-9.256,4.144-9.256,9.256
				c0,5.112,4.144,9.256,9.256,9.256c5.112,0,9.256-4.144,9.256-9.256C210.184,71.497,206.04,67.353,200.928,67.353z M238.57,85.865
				c5.112,0,9.256-4.144,9.256-9.256c0-5.112-4.144-9.256-9.256-9.256c-5.112,0-9.256,4.144-9.256,9.256
				C229.314,81.721,233.458,85.865,238.57,85.865z M200.928,101.909c-5.112,0-9.256,4.144-9.256,9.256
				c0,5.112,4.144,9.256,9.256,9.256c5.112,0,9.256-4.144,9.256-9.256C210.184,106.053,206.04,101.909,200.928,101.909z
				 M276.057,129.677c9.116,0,16.507-7.459,16.507-16.661c0-9.202-7.39-16.661-16.507-16.661c-9.116,0-16.507,7.459-16.507,16.661
				C259.55,122.217,266.94,129.677,276.057,129.677z M311.538,67.97c-5.197,0-9.41,4.282-9.41,9.565c0,5.282,4.213,9.565,9.41,9.565
				s9.41-4.282,9.41-9.565C320.949,72.252,316.735,67.97,311.538,67.97z M273.126,87.099c5.282,0,9.565-4.282,9.565-9.565
				c0-5.282-4.282-9.565-9.565-9.565c-5.282,0-9.565,4.282-9.565,9.565C263.561,82.817,267.843,87.099,273.126,87.099z
				 M311.538,103.76c-5.197,0-9.41,4.213-9.41,9.41c0,5.197,4.213,9.41,9.41,9.41s9.41-4.213,9.41-9.41
				C320.949,107.973,316.735,103.76,311.538,103.76z M339.152,119.187c3.408,0,6.171-2.763,6.171-6.171s-2.763-6.171-6.171-6.171
				c-3.408,0-6.171,2.763-6.171,6.171S335.744,119.187,339.152,119.187z M276.365,135.847c-9.116,0-16.507,7.459-16.507,16.661
				s7.39,16.661,16.507,16.661s16.507-7.459,16.507-16.661S285.482,135.847,276.365,135.847z M311.538,178.734
				c-5.197,0-9.41,4.282-9.41,9.565c0,5.282,4.213,9.565,9.41,9.565s9.41-4.282,9.41-9.565
				C320.949,183.016,316.735,178.734,311.538,178.734z M276.52,178.734c-5.282,0-9.565,4.282-9.565,9.565
				c0,5.282,4.282,9.565,9.565,9.565s9.565-4.282,9.565-9.565C286.084,183.016,281.802,178.734,276.52,178.734z M311.538,142.944
				c-5.197,0-9.41,4.213-9.41,9.41c0,5.197,4.213,9.41,9.41,9.41s9.41-4.213,9.41-9.41
				C320.949,147.157,316.735,142.944,311.538,142.944z M339.152,146.338c-3.408,0-6.171,2.763-6.171,6.171
				c0,3.408,2.763,6.171,6.171,6.171c3.408,0,6.171-2.763,6.171-6.171C345.323,149.1,342.56,146.338,339.152,146.338z
				 M276.52,209.587c-3.408,0-6.171,2.763-6.171,6.171c0,3.408,2.763,6.171,6.171,6.171s6.171-2.763,6.171-6.171
				C282.69,212.35,279.928,209.587,276.52,209.587z M236.873,135.847c-9.116,0-16.507,7.459-16.507,16.661
				s7.39,16.661,16.507,16.661c9.116,0,16.507-7.459,16.507-16.661S245.989,135.847,236.873,135.847z M200.466,178.734
				c-5.197,0-9.41,4.282-9.41,9.565c0,5.282,4.213,9.565,9.41,9.565c5.197,0,9.41-4.282,9.41-9.565
				C209.876,183.016,205.663,178.734,200.466,178.734z M237.027,179.351c-5.282,0-9.565,4.282-9.565,9.565
				c0,5.282,4.282,9.565,9.565,9.565s9.565-4.282,9.565-9.565C246.592,183.633,242.309,179.351,237.027,179.351z M200.466,142.944
				c-5.197,0-9.41,4.213-9.41,9.41c0,5.197,4.213,9.41,9.41,9.41c5.197,0,9.41-4.213,9.41-9.41
				C209.876,147.157,205.663,142.944,200.466,142.944z M173.469,146.338c-3.408,0-6.171,2.763-6.171,6.171
				c0,3.408,2.763,6.171,6.171,6.171c3.408,0,6.171-2.763,6.171-6.171C179.639,149.1,176.877,146.338,173.469,146.338z
				 M237.027,209.587c-3.408,0-6.171,2.763-6.171,6.171c0,3.408,2.763,6.171,6.171,6.171c3.408,0,6.171-2.763,6.171-6.171
				C243.198,212.35,240.435,209.587,237.027,209.587z M173.469,117.181c3.408,0,6.171-2.763,6.171-6.171
				c0-3.408-2.763-6.171-6.171-6.171c-3.408,0-6.171,2.763-6.171,6.171C167.298,114.418,170.061,117.181,173.469,117.181z
				 M238.57,57.634c3.408,0,6.171-2.763,6.171-6.171c0-3.408-2.763-6.171-6.171-6.171c-3.408,0-6.171,2.763-6.171,6.171
				C232.399,54.871,235.162,57.634,238.57,57.634z M273.126,57.634c3.408,0,6.171-2.763,6.171-6.171
				c0-3.408-2.763-6.171-6.171-6.171c-3.408,0-6.171,2.763-6.171,6.171C266.955,54.871,269.718,57.634,273.126,57.634z"/>
			<g>
				<path style="fill:#9647E6;" d="M134.524,279.614v6.529h-29.538v-5.423l19.481-24.905h-19.323v-6.529h29.222v5.423
					l-19.534,24.905H134.524z"/>
				<path style="fill:#9647E6;" d="M142,249.286h27.169v6.529h-20.113v8.425h17.217v6.529h-17.217v8.845h20.376v6.529H142V249.286z"
					/>
				<path style="fill:#9647E6;" d="M183.701,286.143h-6.792v-36.857h6.265l19.429,24.747v-24.747h6.792v36.857h-6.266
					l-19.429-24.694V286.143z"/>
				<path style="fill:#9647E6;" d="M238.094,286.143h-7.055v-36.857h7.055l13.215,23.272l13.164-23.272h7.056v36.857h-7.056v-23.484
					l-10.846,19.324h-4.686l-10.846-19.271V286.143z"/>
				<path style="fill:#9647E6;" d="M280.269,249.286h27.169v6.529h-20.114v8.425h17.217v6.529h-17.217v8.845h20.377v6.529h-27.432
					V249.286z"/>
				<path style="fill:#9647E6;" d="M330.131,286.143h-14.954v-36.857h14.954c5.476,0,10.038,1.773,13.689,5.318
					c3.686,3.546,5.529,7.916,5.529,13.111c0,5.196-1.843,9.566-5.529,13.111C340.169,284.37,335.607,286.143,330.131,286.143z
					 M330.131,255.815h-7.898v23.799h7.898c3.369,0,6.195-1.14,8.476-3.422c2.282-2.352,3.423-5.177,3.423-8.477
					c0-3.37-1.141-6.195-3.423-8.477C336.325,256.955,333.5,255.815,330.131,255.815z"/>
				<path style="fill:#9647E6;" d="M364.144,286.143h-7.055v-36.857h7.055V286.143z"/>
				<path style="fill:#9647E6;" d="M377.728,286.143h-7.424l15.796-36.857h5.739l15.796,36.857h-7.424l-2.896-6.95h-16.692
					L377.728,286.143z M394.577,272.716l-5.582-13.373l-5.634,13.373H394.577z"/>
			</g>
			<g>
				<path style="fill:#9647E6;" d="M158.421,320.226h-7.139v-14.359h6.729c1.121,0,2.051,0.349,2.789,1.046
					c0.752,0.697,1.129,1.566,1.129,2.606c0,1.353-0.588,2.386-1.764,3.097c0.766,0.301,1.374,0.773,1.826,1.415
					c0.451,0.643,0.677,1.382,0.677,2.216c0,1.148-0.411,2.1-1.231,2.851C160.643,319.85,159.637,320.226,158.421,320.226z
					 M158.011,307.138h-5.375v4.944h5.375c0.71,0,1.309-0.236,1.795-0.708c0.485-0.472,0.728-1.056,0.728-1.753
					c0-0.711-0.239-1.303-0.718-1.775C159.337,307.374,158.735,307.138,158.011,307.138z M158.421,313.354h-5.785v5.601h5.785
					c0.806,0,1.484-0.267,2.031-0.801c0.547-0.533,0.821-1.197,0.821-1.989c0-0.794-0.274-1.457-0.821-1.99
					C159.904,313.628,159.227,313.354,158.421,313.354z"/>
				<path style="fill:#9647E6;" d="M169.662,305.867h10.216v1.271h-8.862v5.169h7.837v1.272h-7.837v5.375h8.965v1.271h-10.318
					V305.867z"/>
				<path style="fill:#9647E6;" d="M196.104,308.883l-1.354,0.39c-0.137-0.657-0.53-1.201-1.179-1.631
					c-0.65-0.43-1.426-0.647-2.329-0.647c-0.985,0-1.805,0.246-2.461,0.739c-0.643,0.48-0.964,1.094-0.964,1.847
					c0,0.588,0.259,1.094,0.779,1.517c0.246,0.178,0.547,0.343,0.903,0.492c0.67,0.26,1.457,0.492,2.359,0.698
					c1.053,0.246,1.894,0.52,2.523,0.82c1.313,0.574,2.01,1.614,2.093,3.118c0,1.245-0.486,2.256-1.457,3.036
					c-0.972,0.766-2.195,1.148-3.672,1.148c-1.354,0-2.516-0.321-3.487-0.964c-0.957-0.628-1.552-1.448-1.784-2.461l1.354-0.39
					c0.137,0.725,0.568,1.323,1.293,1.795c0.725,0.472,1.6,0.708,2.625,0.708c1.067,0,1.963-0.259,2.688-0.779
					c0.725-0.52,1.087-1.183,1.087-1.99c0-0.616-0.246-1.134-0.739-1.559c-0.205-0.177-0.486-0.342-0.841-0.492
					c-0.533-0.259-1.21-0.479-2.031-0.656c-0.178-0.041-0.393-0.095-0.647-0.165c-0.253-0.068-0.387-0.102-0.4-0.102
					c-0.246-0.069-0.574-0.171-0.985-0.308c-0.465-0.163-0.786-0.293-0.964-0.389c-0.725-0.383-1.224-0.766-1.497-1.149
					c-0.369-0.56-0.554-1.183-0.554-1.866c0-1.163,0.444-2.113,1.333-2.852c0.875-0.739,2.01-1.108,3.405-1.108
					c1.258,0,2.331,0.301,3.221,0.903C195.311,307.187,195.871,307.953,196.104,308.883z"/>
				<path style="fill:#9647E6;" d="M207.612,307.138h-5.702v-1.271h12.78v1.271h-5.703v13.088h-1.374V307.138z"/>
				<path style="fill:#9647E6;" d="M232.453,320.226H231.1v-14.359h1.354V320.226z"/>
				<path style="fill:#9647E6;" d="M241.52,320.226h-1.313v-14.359h1.169l9.601,11.98v-11.98h1.313v14.359h-1.169l-9.601-11.98
					V320.226z"/>
				<path style="fill:#9647E6;" d="M269.952,305.867h10.215v1.271h-8.861v5.067h7.836v1.272h-7.836v6.749h-1.354V305.867z"/>
				<path style="fill:#9647E6;" d="M285.337,320.226h-1.436l6.381-14.359h1.066l6.379,14.359h-1.436l-1.538-3.508h-7.857
					L285.337,320.226z M294.178,315.447l-3.364-7.612l-3.364,7.612H294.178z"/>
				<path style="fill:#9647E6;" d="M305.461,320.226h-1.354v-14.359h1.354l6.113,10.647l6.133-10.647h1.354v14.359h-1.354v-11.795
					l-5.682,9.908h-0.881l-5.682-9.888V320.226z"/>
				<path style="fill:#9647E6;" d="M328.169,320.226h-1.354v-14.359h1.354V320.226z"/>
				<path style="fill:#9647E6;" d="M335.924,305.867h1.354v13.088h8.061v1.271h-9.416V305.867z"/>
				<path style="fill:#9647E6;" d="M354.323,314.4l-5.662-8.533h1.559l4.76,7.241l4.8-7.241h1.559l-5.662,8.472v5.887h-1.354V314.4z
					"/>
			</g>
		</g>
	</g>
	<g id="Frame_3_00000082330081942973692520000014353202192332945306_">
	</g>
</g>
</svg>
