<?xml version="1.0" encoding="utf-8"?>
<!-- Generator: Adobe Illustrator 25.4.1, SVG Export Plug-In . SVG Version: 6.00 Build 0)  -->
<svg version="1.1" id="Layer_1" xmlns="http://www.w3.org/2000/svg" xmlns:xlink="http://www.w3.org/1999/xlink" x="0px" y="0px"
	 viewBox="0 0 108.7 23.1" style="enable-background:new 0 0 108.7 23.1;" xml:space="preserve">
<style type="text/css">
	.st0{fill:#E71720;}
	.st1{fill:#33FF66;}
</style>
<g id="Layer_2_00000047058015681247090070000016425644227371121289_">
	<g id="Layer_1-2">
		<g id="Layer_2-2">
			<g id="Logo">
				<g id="Sector_4">
					<path class="st0" d="M22.5,9.8v2h-8.9v-1.7l5.9-7.4h-5.8v-2h8.8v1.7l-5.9,7.5L22.5,9.8L22.5,9.8z"/>
					<path class="st0" d="M24.7,0.7h8.2v2h-6.1v2.6h5.2v2h-5.2v2.7H33v2h-8.3V0.7z"/>
					<path class="st0" d="M37.3,11.9h-2V0.7h1.9L43,8.1V0.7h2v11.1h-1.9l-5.9-7.4V11.9z"/>
					<path class="st0" d="M53.7,11.9h-2.1V0.7h2.1l4,7l4-7h2.1v11.1h-2.1V4.7l-3.3,5.8H57l-3.3-5.8L53.7,11.9L53.7,11.9z"/>
					<path class="st0" d="M66.3,0.7h8.2v2h-6.1v2.6h5.2v2h-5.2v2.7h6.1v2h-8.3V0.7z"/>
					<path class="st0" d="M81.4,11.9H77V0.7h4.5c1.5-0.1,3,0.6,4.1,1.6c1.1,1,1.7,2.4,1.7,3.9s-0.6,2.9-1.7,3.9
						C84.4,11.3,82.9,11.9,81.4,11.9z M81.4,2.6H79v7.2h2.4c0.9,0,1.9-0.4,2.5-1c0.7-0.7,1-1.6,1-2.5C85,4.3,83.5,2.7,81.4,2.6
						C81.5,2.6,81.4,2.6,81.4,2.6z"/>
					<path class="st0" d="M91.7,11.9h-2.1V0.7h2.1V11.9z"/>
					<path class="st0" d="M95.7,11.9h-2.2l4.7-11.1h1.8l4.7,11.1h-2.2l-0.8-2h-5L95.7,11.9z M100.7,7.8l-1.7-4l-1.7,4H100.7z"/>
					<path class="st0" d="M29.7,22.1h-2.1v-4.3h2c0.3,0,0.7,0.1,0.8,0.3c0.2,0.2,0.4,0.5,0.4,0.7c0,0.4-0.2,0.7-0.6,0.9
						c0.2,0.1,0.4,0.3,0.6,0.5c0.1,0.2,0.2,0.5,0.2,0.7c0,0.4-0.1,0.7-0.4,0.8C30.4,21.9,30,22.1,29.7,22.1z M29.6,18.1H28v1.5h1.6
						c0.2,0,0.4-0.1,0.6-0.2c0.3-0.3,0.3-0.7,0-1l0,0C29.9,18.2,29.8,18.1,29.6,18.1z M29.7,20h-1.8v1.7h1.8c0.2,0,0.5-0.1,0.6-0.3
						c0.4-0.4,0.4-0.8,0-1.2l0,0l0,0C30.1,20.1,29.9,20,29.7,20L29.7,20z"/>
					<path class="st0" d="M33.1,17.7h3.1v0.4h-2.7v1.6h2.3v0.4h-2.3v1.6h2.7V22h-3.1V17.7z"/>
					<path class="st0" d="M41,18.7l-0.4,0.1c0-0.2-0.2-0.4-0.4-0.5c-0.2-0.1-0.5-0.2-0.7-0.2c-0.3,0-0.5,0.1-0.7,0.2
						c-0.2,0.1-0.3,0.4-0.3,0.6s0.1,0.4,0.3,0.5c0.1,0.1,0.2,0.1,0.3,0.2c0.2,0.1,0.5,0.2,0.7,0.2c0.3,0.1,0.5,0.1,0.7,0.3
						c0.4,0.2,0.7,0.6,0.7,0.9s-0.2,0.7-0.5,0.9c-0.3,0.3-0.7,0.4-1.1,0.4c-0.4,0-0.7-0.1-1-0.3c-0.3-0.2-0.5-0.5-0.6-0.7l0.4-0.1
						c0.1,0.2,0.2,0.5,0.4,0.6c0.3,0.2,0.5,0.2,0.7,0.2c0.3,0,0.6-0.1,0.8-0.3c0.2-0.1,0.4-0.4,0.3-0.6c0-0.2-0.1-0.4-0.2-0.5
						c-0.1-0.1-0.2-0.1-0.3-0.1c-0.2-0.1-0.4-0.2-0.7-0.2l-0.2-0.1h-0.1L39,20.1L38.7,20c-0.2-0.1-0.4-0.2-0.5-0.4
						C38.1,19.4,38,19.2,38,19c0-0.4,0.1-0.7,0.4-0.8c0.3-0.3,0.7-0.4,1-0.4s0.7,0.1,0.9,0.3C40.7,18.1,40.9,18.4,41,18.7z"/>
					<path class="st0" d="M44.5,18.1h-1.7v-0.4h3.8v0.4h-1.7V22h-0.4L44.5,18.1z"/>
					<path class="st0" d="M52,22.1h-0.4v-4.3H52V22.1z"/>
					<path class="st0" d="M54.7,22.1h-0.4v-4.3h0.4l2.9,3.6v-3.6H58v4.3h-0.4l-2.9-3.6V22.1z"/>
					<path class="st0" d="M63.3,17.7h3.1v0.4h-2.7v1.5H66V20h-2.3v2h-0.4V17.7z"/>
					<path class="st0" d="M67.9,22.1h-0.5l2-4.3h0.3l2,4.3h-0.5l-0.5-1h-2.3L67.9,22.1z M70.5,20.6l-1-2.3l-1,2.3H70.5z"/>
					<path class="st0" d="M74,22.1h-0.4v-4.3H74l1.9,3.2l1.9-3.2h0.4v4.3h-0.4v-3.5l-1.7,3h-0.3l-1.7-3L74,22.1z"/>
					<path class="st0" d="M80.8,22.1h-0.4v-4.3h0.4V22.1z"/>
					<path class="st0" d="M83.1,17.7h0.5v3.9H86V22h-2.8L83.1,17.7z"/>
					<path class="st0" d="M88.7,20.3L87,17.7h0.5l1.4,2.1l1.5-2.1h0.5l-1.7,2.5V22h-0.4L88.7,20.3z"/>
				</g>
			</g>
		</g>
		<g id="Layer_2-3">
			<g id="Logo-2">
				<g id="Sector_4-2">
					<path class="st1" d="M11.7,10.5c1.1,0,2-0.8,2-2s-0.9-2-2-2c-1.1,0-2,0.8-2,2l0,0C9.7,9.5,10.6,10.5,11.7,10.5L11.7,10.5z
						 M7.5,3.2c-0.6,0-1.1,0.6-1.1,1.1c0,0.7,0.5,1.1,1.1,1.1S8.6,5,8.6,4.3l0,0C8.6,3.8,8.2,3.3,7.5,3.2L7.5,3.2z M12.1,5.4
						c0.7,0,1.1-0.5,1.1-1.1s-0.5-1.1-1.1-1.1c-0.7,0-1.1,0.6-1.1,1.2C10.9,5,11.4,5.4,12.1,5.4L12.1,5.4L12.1,5.4z M7.5,7.4
						c-0.7,0-1.1,0.5-1.1,1.1s0.5,1.1,1.1,1.1s1.1-0.5,1.1-1.1l0,0C8.6,8,8.2,7.4,7.5,7.4L7.5,7.4L7.5,7.4z M16.6,10.7
						c1.1,0,2-0.8,2-2s-0.8-2-2-2c-1.1,0-2,0.8-2,2l0,0l0,0C14.6,9.8,15.5,10.7,16.6,10.7C16.5,10.7,16.5,10.7,16.6,10.7L16.6,10.7z
						 M20.8,3.3c-0.7,0-1.2,0.5-1.2,1.1s0.5,1.2,1.1,1.2c0.7,0,1.2-0.5,1.2-1.1l0,0l0,0C22,3.9,21.5,3.3,20.8,3.3L20.8,3.3L20.8,3.3
						z M16.2,5.6c0.7,0,1.1-0.5,1.1-1.1c0-0.7-0.5-1.1-1.1-1.1S15,3.9,15,4.5l0,0C15,5.1,15.5,5.6,16.2,5.6
						C16.2,5.6,16.3,5.6,16.2,5.6L16.2,5.6z M20.8,7.6c-0.7,0-1.1,0.5-1.1,1.1s0.5,1.1,1.1,1.1c0.7,0,1.1-0.5,1.1-1.1l0,0
						C22,8.1,21.5,7.6,20.8,7.6z M24.2,9.4c0.4,0,0.7-0.4,0.7-0.7S24.5,8,24.2,8l0,0c-0.4,0-0.7,0.4-0.7,0.7l0,0l0,0
						C23.4,9.2,23.7,9.4,24.2,9.4C24.2,9.4,24.2,9.5,24.2,9.4L24.2,9.4z M16.6,11.5c-1.1,0-2,0.8-2,2s0.8,2,2,2s2-0.8,2-2l0,0
						C18.6,12.4,17.7,11.5,16.6,11.5L16.6,11.5L16.6,11.5z M20.8,16.6c-0.7,0-1.2,0.5-1.2,1.1c0,0.7,0.5,1.2,1.1,1.2
						c0.7,0,1.2-0.5,1.2-1.1l0,0l0,0C22,17.2,21.5,16.7,20.8,16.6L20.8,16.6z M16.6,16.6c-0.7,0-1.1,0.6-1.1,1.1
						c0,0.6,0.6,1.1,1.1,1.1c0.7,0,1.1-0.6,1.1-1.1l0,0C17.8,17.2,17.3,16.6,16.6,16.6L16.6,16.6z M20.8,12.3
						c-0.7,0-1.1,0.5-1.1,1.1c0,0.7,0.5,1.1,1.1,1.1c0.7,0,1.1-0.5,1.1-1.1l0,0C21.9,12.9,21.5,12.3,20.8,12.3z M24.2,12.8
						c-0.4,0-0.7,0.4-0.7,0.7l0,0c0,0.4,0.3,0.7,0.7,0.7l0,0c0.4,0,0.7-0.4,0.7-0.7l0,0C24.9,13.1,24.5,12.8,24.2,12.8L24.2,12.8z
						 M16.6,20.3c-0.4,0-0.7,0.3-0.7,0.7l0,0c0,0.4,0.4,0.7,0.7,0.7s0.7-0.3,0.7-0.7l0,0l0,0C17.4,20.7,17.1,20.3,16.6,20.3
						L16.6,20.3L16.6,20.3z M11.9,11.5c-1.1,0-2,0.8-2,2s0.9,2,2,2s2-0.8,2-2l0,0C13.8,12.4,13,11.5,11.9,11.5L11.9,11.5z M7.5,16.6
						c-0.7,0-1.2,0.5-1.2,1.1c0,0.7,0.5,1.2,1.1,1.2s1.2-0.5,1.2-1.1l0,0l0,0C8.6,17.2,8.2,16.7,7.5,16.6L7.5,16.6L7.5,16.6z
						 M11.9,16.7c-0.7,0-1.1,0.5-1.1,1.1c0,0.7,0.5,1.1,1.1,1.1c0.7,0,1.1-0.5,1.1-1.1l0,0l0,0C13,17.3,12.5,16.7,11.9,16.7
						L11.9,16.7z M7.5,12.3c-0.7,0-1.1,0.5-1.1,1.1c0,0.7,0.5,1.1,1.1,1.1s1.1-0.5,1.1-1.1l0,0l0,0C8.6,12.9,8.2,12.3,7.5,12.3
						L7.5,12.3z M4.2,12.8c-0.4,0-0.7,0.3-0.7,0.7l0,0c0,0.4,0.4,0.7,0.7,0.7l0,0c0.4,0,0.7-0.4,0.7-0.7l0,0l0,0
						C5,13.1,4.6,12.8,4.2,12.8z M11.9,20.3c-0.4,0-0.7,0.3-0.7,0.7l0,0c0,0.4,0.4,0.7,0.7,0.7c0.4,0,0.7-0.3,0.7-0.7l0,0l0,0
						C12.6,20.7,12.2,20.3,11.9,20.3L11.9,20.3L11.9,20.3z M4.2,9.3C4.6,9.3,5,8.9,5,8.5c0-0.4-0.4-0.7-0.7-0.7
						C3.9,7.8,3.5,8,3.5,8.5l0,0C3.5,8.9,3.9,9.3,4.2,9.3L4.2,9.3z M12.1,2.1c0.4,0,0.7-0.4,0.7-0.7l0,0c0-0.4-0.4-0.7-0.7-0.7
						c-0.4,0-0.7,0.4-0.7,0.7l0,0C11.3,1.7,11.7,2.1,12.1,2.1L12.1,2.1z M16.3,2.1c0.4,0,0.7-0.3,0.7-0.7l0,0c0-0.4-0.4-0.7-0.7-0.7
						l0,0c-0.4,0-0.7,0.4-0.7,0.7l0,0l0,0C15.5,1.7,15.8,2.1,16.3,2.1z"/>
				</g>
			</g>
		</g>
	</g>
</g>
</svg>
