<?xml version="1.0" encoding="utf-8"?>
<!-- Generator: Adobe Illustrator 25.4.1, SVG Export Plug-In . SVG Version: 6.00 Build 0)  -->
<svg version="1.1" id="Layer_1" xmlns="http://www.w3.org/2000/svg" xmlns:xlink="http://www.w3.org/1999/xlink" x="0px" y="0px"
	 viewBox="0 0 302.6 71.1" style="enable-background:new 0 0 302.6 71.1;" xml:space="preserve">
<style type="text/css">
	.st0{fill:#33FF66;}
	.st1{fill:#9933FF;stroke:#FFFFFF;stroke-width:0.25;stroke-miterlimit:10;}
	.st2{fill:#9933FF;}
</style>
<g id="Layer_2_00000018958098906323460690000016351826210638672545_">
	<g id="Logo_00000043426886110533000870000001561318875095744901_">
		<g id="Sector_4_00000005257523355280666500000018131457680092521639_">
			<path class="st0" d="M40.4,33.4c2.9,0,5.2-2.3,5.2-5.2S43.3,23,40.4,23s-5.2,2.3-5.2,5.2l0,0C35.2,31.1,37.5,33.4,40.4,33.4z
				 M29.4,14.3c-1.6,0-3,1.3-3,3c0,1.6,1.3,3,3,3s3-1.3,3-3l0,0C32.4,15.6,31.1,14.3,29.4,14.3z M41.5,20.2c1.6,0,3-1.3,3-3
				c0-1.6-1.3-3-3-3c-1.6,0-3,1.3-3,3S39.8,20.2,41.5,20.2L41.5,20.2z M29.4,25.3c-1.6,0-3,1.3-3,3c0,1.6,1.3,3,3,3c1.6,0,3-1.3,3-3
				l0,0C32.4,26.7,31,25.3,29.4,25.3L29.4,25.3z M53.4,34.2c2.9,0,5.3-2.3,5.4-5.3c0-2.9-2.3-5.3-5.3-5.4c-2.9,0-5.3,2.3-5.4,5.3
				c0,0,0,0,0,0.1C48.1,31.8,50.5,34.2,53.4,34.2L53.4,34.2z M64.8,14.5c-1.7,0-3.1,1.3-3.1,3s1.3,3.1,3,3.1c1.7,0,3.1-1.3,3.1-3
				c0,0,0,0,0-0.1C67.8,15.9,66.4,14.5,64.8,14.5L64.8,14.5z M52.5,20.6c1.7,0,3.1-1.4,3.1-3.1s-1.4-3.1-3.1-3.1s-3.1,1.4-3.1,3.1
				S50.8,20.6,52.5,20.6L52.5,20.6z M64.8,25.9c-1.7,0-3,1.3-3,3s1.3,3,3,3c1.7,0,3-1.3,3-3S66.4,25.9,64.8,25.9L64.8,25.9z
				 M73.6,30.9c1.1,0,2-0.9,2-2s-0.9-2-2-2s-2,0.9-2,2l0,0C71.6,30,72.5,30.9,73.6,30.9z M53.5,36.2c-2.9,0-5.3,2.3-5.4,5.3
				c0,2.9,2.3,5.3,5.3,5.4c2.9,0,5.3-2.3,5.4-5.3c0,0,0,0,0-0.1C58.8,38.6,56.5,36.2,53.5,36.2L53.5,36.2z M64.8,49.9
				c-1.7,0-3.1,1.3-3.1,3s1.3,3.1,3,3.1c1.7,0,3.1-1.3,3.1-3c0,0,0,0,0-0.1C67.8,51.3,66.4,49.9,64.8,49.9L64.8,49.9L64.8,49.9z
				 M53.6,49.9c-1.7,0-3.1,1.4-3.1,3.1s1.4,3.1,3.1,3.1s3.1-1.4,3.1-3.1C56.6,51.3,55.3,49.9,53.6,49.9L53.6,49.9L53.6,49.9z
				 M64.8,38.5c-1.7,0-3,1.3-3,3s1.3,3,3,3c1.7,0,3-1.3,3-3S66.4,38.5,64.8,38.5L64.8,38.5z M73.6,39.5c-1.1,0-2,0.9-2,2s0.9,2,2,2
				s2-0.9,2-2l0,0C75.6,40.4,74.7,39.5,73.6,39.5L73.6,39.5z M53.6,59.7c-1.1,0-2,0.9-2,2s0.9,2,2,2s2-0.9,2-2l0,0
				C55.6,60.6,54.7,59.8,53.6,59.7L53.6,59.7z M40.9,36.2c-2.9,0-5.3,2.3-5.4,5.3c0,2.9,2.3,5.3,5.3,5.4s5.3-2.3,5.4-5.3l0,0
				C46.2,38.6,43.8,36.2,40.9,36.2L40.9,36.2z M29.3,49.9c-1.7,0-3.1,1.3-3.1,3s1.3,3.1,3,3.1s3.1-1.3,3.1-3c0,0,0,0,0-0.1
				C32.3,51.3,30.9,49.9,29.3,49.9z M41,50.1c-1.7,0-3.1,1.4-3.1,3.1c0,1.7,1.4,3.1,3.1,3.1s3.1-1.4,3.1-3.1l0,0
				C44,51.5,42.6,50.1,41,50.1z M29.3,38.5c-1.7,0-3,1.3-3,3s1.3,3,3,3s3-1.3,3-3l0,0C32.3,39.8,30.9,38.5,29.3,38.5z M20.6,39.5
				c-1.1,0-2,0.9-2,2s0.9,2,2,2s2-0.9,2-2l0,0C22.6,40.4,21.7,39.5,20.6,39.5z M41,59.7c-1.1,0-2,0.9-2,2s0.9,2,2,2s2-0.9,2-2l0,0
				C42.9,60.6,42,59.8,41,59.7L41,59.7z M20.6,30.2c1.1,0,2-0.9,2-2s-0.9-2-2-2s-2,0.9-2,2l0,0C18.7,29.3,19.6,30.2,20.6,30.2z
				 M41.5,11.2c1.1,0,2-0.9,2-2s-0.9-2-2-2s-2,0.9-2,2l0,0C39.5,10.3,40.4,11.2,41.5,11.2z M52.5,11.2c1.1,0,2-0.9,2-2s-0.9-2-2-2
				s-2,0.9-2,2l0,0C50.5,10.3,51.4,11.2,52.5,11.2z"/>
		</g>
	</g>
</g>
<g id="Layer_2_00000029042781962385085600000005911630257888874167_">
	<g id="Logo">
		<g id="Sector_4">
			<path class="st1" d="M69.2,31.8V37H45.6v-4.3l15.6-19.9H45.7V7.6h23.4v4.3L53.4,31.8H69.2z"/>
			<path class="st1" d="M75.2,7.6h21.7v5.2H80.8v6.8h13.8v5.2H80.8v7.1h16.3v5.2h-22L75.2,7.6L75.2,7.6z"/>
			<path class="st1" d="M108.5,37h-5.4V7.6h5l15.5,19.8V7.6h5.4V37h-5l-15.5-19.8V37z"/>
			<path class="st1" d="M152,37h-5.6V7.6h5.6l10.6,18.6l10.5-18.6h5.6V37h-5.6V18.3l-8.7,15.5h-3.7L152,18.3V37z"/>
			<path class="st1" d="M185.7,7.6h21.7v5.2h-16.1v6.8h13.8v5.2h-13.8v7.1h16.3v5.2h-21.9V7.6z"/>
			<path class="st1" d="M225.6,37h-12V7.6h12c4.1-0.1,8,1.4,10.9,4.3c2.9,2.7,4.5,6.5,4.4,10.5c0.1,4-1.5,7.8-4.4,10.5
				C233.6,35.6,229.7,37.2,225.6,37z M225.6,12.8h-6.3v19h6.3c2.5,0.1,5-0.9,6.8-2.7c1.8-1.8,2.8-4.2,2.7-6.8c0.1-5.2-4-9.4-9.2-9.5
				C225.8,12.8,225.7,12.8,225.6,12.8L225.6,12.8z"/>
			<path class="st1" d="M252.8,37h-5.6V7.6h5.6V37z"/>
			<path class="st1" d="M263.7,37h-5.9l12.6-29.5h4.6L287.6,37h-5.9l-2.3-5.6H266L263.7,37z M277.1,26.3l-4.5-10.7l-4.5,10.7H277.1z
				"/>
			<path class="st2" d="M88.3,64.3h-5.7V52.8H88c0.8,0,1.6,0.3,2.2,0.8s0.9,1.3,0.9,2.1c0,1-0.5,2-1.4,2.5c0.6,0.2,1.1,0.6,1.5,1.1
				s0.6,1.2,0.5,1.8c0,0.9-0.3,1.7-1,2.3C90.1,64,89.2,64.3,88.3,64.3z M88,53.8h-4.3v4H88c0.5,0,1.1-0.2,1.4-0.6
				c0.8-0.8,0.8-2,0-2.8C89,54,88.5,53.8,88,53.8z M88.3,58.8h-4.6v4.5h4.6c0.6,0,1.2-0.2,1.6-0.6c0.9-0.9,0.9-2.3,0-3.2l0,0
				C89.5,59,88.9,58.8,88.3,58.8L88.3,58.8z"/>
			<path class="st2" d="M97.3,52.8h8.2v1h-7.1v4.1h6.3v1h-6.3v4.3h7.2v1h-8.3C97.3,64.2,97.3,52.8,97.3,52.8z"/>
			<path class="st2" d="M118.4,55.2l-1.1,0.3c-0.1-0.5-0.5-1-0.9-1.3c-0.6-0.4-1.2-0.5-1.9-0.5c-0.7,0-1.4,0.2-2,0.6
				c-0.5,0.3-0.8,0.9-0.8,1.5c0,0.5,0.2,0.9,0.6,1.2c0.2,0.2,0.5,0.3,0.7,0.4c0.6,0.2,1.2,0.4,1.9,0.6c0.7,0.1,1.4,0.4,2,0.7
				c1,0.4,1.7,1.4,1.7,2.5c0,1-0.4,1.9-1.2,2.4c-0.8,0.6-1.9,1-2.9,0.9c-1,0-2-0.3-2.8-0.8c-0.7-0.4-1.2-1.1-1.4-2l1.1-0.3
				c0.1,0.6,0.5,1.1,1,1.4c0.6,0.4,1.4,0.6,2.1,0.6c0.8,0,1.5-0.2,2.2-0.6c0.5-0.4,0.9-1,0.9-1.6c0-0.5-0.2-0.9-0.6-1.2
				c-0.2-0.2-0.4-0.3-0.7-0.4c-0.5-0.2-1-0.4-1.6-0.5l-0.5-0.1l-0.3-0.1c-0.2-0.1-0.5-0.1-0.8-0.2c-0.3-0.1-0.5-0.2-0.8-0.3
				c-0.5-0.2-0.9-0.5-1.2-0.9c-0.3-0.4-0.4-1-0.4-1.5c0-0.9,0.4-1.7,1.1-2.3c0.8-0.6,1.7-0.9,2.7-0.9c0.9,0,1.8,0.2,2.6,0.7
				C117.7,53.8,118.2,54.5,118.4,55.2z"/>
			<path class="st2" d="M127.6,53.8H123v-1h10.2v1h-4.6v10.5h-1.1V53.8H127.6z"/>
			<path class="st2" d="M147.5,64.3h-1.1V52.8h1.1V64.3z"/>
			<path class="st2" d="M154.7,64.3h-1V52.8h0.9l7.7,9.6v-9.6h1v11.5h-0.9l-7.7-9.6V64.3z"/>
			<path class="st2" d="M177.5,52.8h8.2v1h-7.1v4.1h6.3v1h-6.3v5.4h-1.1L177.5,52.8L177.5,52.8z"/>
			<path class="st2" d="M189.8,64.3h-1.1l5.1-11.5h0.8l5.1,11.5h-1.1l-1.2-2.8H191L189.8,64.3z M196.9,60.5l-2.7-6.1l-2.7,6.1H196.9
				z"/>
			<path class="st2" d="M205.9,64.3h-1.1V52.8h1.1l4.9,8.5l4.9-8.5h1.1v11.5h-1.1v-9.4l-4.6,7.9h-0.7l-4.5-7.9L205.9,64.3z"/>
			<path class="st2" d="M224,64.3h-1V52.8h1.1v11.5H224z"/>
			<path class="st2" d="M230.2,52.8h1.1v10.5h6.4v1h-7.5V52.8z"/>
			<path class="st2" d="M245,59.6l-4.5-6.8h1.2l3.8,5.8l3.8-5.8h1.2l-4.5,6.8v4.7h-1V59.6z"/>
		</g>
	</g>
</g>
</svg>
