<?xml version="1.0" encoding="utf-8"?>
<!-- Generator: Adobe Illustrator 25.4.1, SVG Export Plug-In . SVG Version: 6.00 Build 0)  -->
<svg version="1.1" id="Layer_1" xmlns="http://www.w3.org/2000/svg" xmlns:xlink="http://www.w3.org/1999/xlink" x="0px" y="0px"
	 viewBox="0 0 345.5 342.8" style="enable-background:new 0 0 345.5 342.8;" xml:space="preserve">
<style type="text/css">
	.st0{fill:#272525;}
</style>
<g id="Layer_2_00000140720232006285223960000002344937260915611327_">
	<g id="Layer_1-2">
		<path class="st0" d="M134.6,159.6c16.2,0,29.3-13.1,29.3-29.3s-13.1-29.3-29.3-29.3s-29.3,13.1-29.3,29.3S118.4,159.6,134.6,159.6
			L134.6,159.6z M72.4,51.4c-9.3,0-16.8,7.5-16.8,16.8S63.1,85,72.4,85s16.8-7.5,16.8-16.8S81.7,51.4,72.4,51.4z M140.5,84.9
			c9.3,0,16.8-7.5,16.8-16.8s-7.5-16.8-16.8-16.8s-16.8,7.5-16.8,16.8C123.7,77.4,131.2,84.9,140.5,84.9z M72.4,113.9
			c-9.3,0-16.8,7.5-16.8,16.8s7.5,16.8,16.8,16.8s16.8-7.5,16.8-16.8C89.2,121.4,81.7,113.9,72.4,113.9
			C72.4,113.9,72.4,113.9,72.4,113.9L72.4,113.9z M208.3,164.1c16.6,0.2,30.3-13.2,30.4-29.8c0.2-16.6-13.2-30.3-29.8-30.4
			c-16.6-0.2-30.3,13.2-30.4,29.8c0,0.1,0,0.2,0,0.3C178.4,150.5,191.7,164,208.3,164.1L208.3,164.1z M272.4,52.6
			c-9.5-0.2-17.4,7.5-17.6,17s7.5,17.4,17,17.6c9.5,0.2,17.4-7.5,17.6-17c0-0.1,0-0.2,0-0.3C289.5,60.4,281.9,52.6,272.4,52.6
			C272.4,52.6,272.4,52.6,272.4,52.6z M202.9,87.1c9.6,0,17.3-7.7,17.3-17.3s-7.7-17.3-17.3-17.3s-17.3,7.7-17.3,17.3l0,0
			C185.7,79.4,193.4,87.1,202.9,87.1z M272.4,117.2c-9.4,0-17,7.6-17,17c0,9.4,7.6,17,17,17c9.4,0,17-7.6,17-17
			C289.4,124.9,281.8,117.3,272.4,117.2C272.4,117.2,272.4,117.2,272.4,117.2z M322.3,145.1c6.2,0,11.2-5,11.2-11.2
			c0-6.2-5-11.2-11.2-11.2c-6.2,0-11.2,5-11.2,11.2C311.2,140.1,316.2,145.1,322.3,145.1z M208.8,175.2
			c-16.6-0.2-30.3,13.2-30.4,29.8c-0.2,16.6,13.2,30.3,29.8,30.4c16.6,0.2,30.3-13.2,30.4-29.8c0-0.1,0-0.2,0-0.3
			C238.7,188.8,225.4,175.3,208.8,175.2z M272.4,252.8c-9.6-0.2-17.4,7.5-17.6,17s7.5,17.4,17,17.6c9.6,0.2,17.4-7.5,17.6-17
			c0-0.1,0-0.2,0-0.3C289.5,260.6,281.9,252.8,272.4,252.8C272.4,252.8,272.4,252.8,272.4,252.8z M209,252.8
			c-9.6,0-17.3,7.7-17.3,17.3c0,9.6,7.7,17.3,17.3,17.3c9.6,0,17.3-7.7,17.3-17.3c0,0,0,0,0,0C226.3,260.5,218.6,252.8,209,252.8
			L209,252.8z M272.4,188.1c-9.4,0-17,7.6-17,17c0,9.4,7.6,17,17,17c9.4,0,17-7.6,17-17c0,0,0,0,0,0
			C289.4,195.7,281.8,188.1,272.4,188.1C272.4,188.1,272.4,188.1,272.4,188.1L272.4,188.1z M322.3,194.2c-6.2,0-11.2,5-11.2,11.2
			s5,11.2,11.2,11.2c6.2,0,11.2-5,11.2-11.2C333.5,199.2,328.5,194.2,322.3,194.2C322.4,194.2,322.3,194.2,322.3,194.2L322.3,194.2z
			 M209.1,308.5c-6.2,0-11.2,5-11.2,11.2s5,11.2,11.2,11.2s11.2-5,11.2-11.2S215.3,308.5,209.1,308.5z M137.4,175.2
			c-16.6-0.2-30.3,13.2-30.4,29.8c-0.2,16.6,13.2,30.3,29.8,30.4c16.6,0.2,30.3-13.2,30.4-29.8c0-0.1,0-0.2,0-0.3
			C167.3,188.8,153.9,175.3,137.4,175.2z M71.6,252.8c-9.6-0.2-17.4,7.5-17.6,17c-0.2,9.5,7.5,17.4,17,17.6
			c9.6,0.2,17.4-7.5,17.6-17c0-0.1,0-0.2,0-0.3C88.7,260.6,81,252.8,71.6,252.8C71.6,252.8,71.6,252.8,71.6,252.8z M137.7,253.9
			c-9.6,0-17.3,7.7-17.3,17.3c0,9.5,7.8,17.3,17.3,17.3c9.5,0,17.3-7.7,17.3-17.3C155,261.6,147.3,253.9,137.7,253.9
			C137.7,253.9,137.7,253.9,137.7,253.9L137.7,253.9z M71.6,188.1c-9.4,0-17,7.6-17,17c0,9.4,7.6,17,17,17s17-7.6,17-17c0,0,0,0,0,0
			C88.6,195.7,81,188.1,71.6,188.1C71.6,188.1,71.6,188.1,71.6,188.1z M22.8,194.2c-6.2,0-11.2,5-11.2,11.2s5,11.2,11.2,11.2
			s11.2-5,11.2-11.2S28.9,194.2,22.8,194.2z M137.7,308.5c-6.2,0-11.2,5-11.2,11.2s5,11.2,11.2,11.2c6.2,0,11.2-5,11.2-11.2
			S143.8,308.5,137.7,308.5z M22.8,141.5c6.2,0,11.2-5,11.2-11.2c0-6.2-5-11.2-11.2-11.2s-11.2,5-11.2,11.2
			C11.6,136.5,16.6,141.5,22.8,141.5z M140.5,33.9c6.2,0,11.2-5,11.2-11.2s-5-11.2-11.2-11.2s-11.2,5-11.2,11.2
			S134.3,33.9,140.5,33.9z M202.9,33.9c6.2,0,11.2-5,11.2-11.2s-5-11.2-11.2-11.2s-11.2,5-11.2,11.2S196.8,33.9,202.9,33.9z"/>
	</g>
</g>
</svg>
