<?xml version="1.0" encoding="utf-8"?>
<!-- Generator: Adobe Illustrator 25.4.1, SVG Export Plug-In . SVG Version: 6.00 Build 0)  -->
<svg version="1.1" id="Layer_1" xmlns="http://www.w3.org/2000/svg" xmlns:xlink="http://www.w3.org/1999/xlink" x="0px" y="0px"
	 viewBox="0 0 178 176.6" style="enable-background:new 0 0 178 176.6;" xml:space="preserve">
<style type="text/css">
	.st0{fill:#33FF66;}
</style>
<g id="Layer_2_00000018958098906323460690000016351826210638672545_">
	<g id="Logo">
		<g id="Sector_4">
			<path class="st0" d="M70.1,83.1c8.4,0,15.2-6.8,15.2-15.2s-6.8-15.2-15.2-15.2s-15.2,6.8-15.2,15.2l0,0
				C54.9,76.3,61.7,83.1,70.1,83.1z M37.9,27c-4.8,0-8.7,3.9-8.7,8.7s3.9,8.7,8.7,8.7s8.7-3.9,8.7-8.7l0,0
				C46.6,30.9,42.7,27,37.9,27z M73.2,44.3c4.8,0,8.7-3.9,8.7-8.7s-3.9-8.7-8.7-8.7c-4.8,0-8.7,3.9-8.7,8.7S68.4,44.3,73.2,44.3
				L73.2,44.3z M37.9,59.3c-4.8,0-8.7,3.9-8.7,8.7s3.9,8.7,8.7,8.7s8.7-3.9,8.7-8.7l0,0C46.5,63.2,42.7,59.4,37.9,59.3L37.9,59.3z
				 M108.3,85.4c8.6,0.1,15.7-6.9,15.8-15.5s-6.9-15.7-15.5-15.8C100,54,92.9,61,92.8,69.6c0,0.1,0,0.1,0,0.2
				C92.8,78.4,99.7,85.4,108.3,85.4L108.3,85.4z M141.6,27.5c-5-0.1-9,3.9-9.1,8.8c-0.1,5,3.9,9,8.8,9.1c5,0.1,9-3.9,9.1-8.8
				c0-0.1,0-0.1,0-0.2C150.4,31.6,146.5,27.6,141.6,27.5L141.6,27.5z M105.6,45.5c5,0,9-4,9-9s-4-9-9-9s-9,4-9,9
				S100.6,45.5,105.6,45.5L105.6,45.5z M141.6,61.1c-4.9,0-8.8,3.9-8.8,8.8s3.9,8.8,8.8,8.8s8.8-3.9,8.8-8.8
				C150.4,65.1,146.4,61.1,141.6,61.1L141.6,61.1z M167.4,75.6c3.2,0,5.8-2.6,5.8-5.8c0-3.2-2.6-5.8-5.8-5.8s-5.8,2.6-5.8,5.8l0,0
				C161.7,73,164.2,75.6,167.4,75.6z M108.6,91.2c-8.6-0.1-15.7,6.8-15.8,15.5c-0.1,8.6,6.8,15.7,15.5,15.8
				c8.6,0.1,15.7-6.8,15.8-15.5v-0.1C124.1,98.2,117.2,91.2,108.6,91.2L108.6,91.2z M141.6,131.4c-5-0.1-9,3.9-9.1,8.8
				c-0.1,5,3.9,9,8.8,9.1c5,0.1,9-3.9,9.1-8.8v-0.1C150.4,135.4,146.5,131.4,141.6,131.4L141.6,131.4L141.6,131.4z M108.8,131.4
				c-5,0-9,4-9,9s4,9,9,9s9-4,9-9C117.7,135.4,113.7,131.4,108.8,131.4C108.8,131.4,108.7,131.4,108.8,131.4L108.8,131.4z
				 M141.6,97.8c-4.9,0-8.8,3.9-8.8,8.8s3.9,8.8,8.8,8.8s8.8-3.9,8.8-8.8C150.4,101.8,146.4,97.8,141.6,97.8L141.6,97.8z M167.4,101
				c-3.2,0-5.8,2.6-5.8,5.8c0,3.2,2.6,5.8,5.8,5.8s5.8-2.6,5.8-5.8l0,0C173.2,103.6,170.6,101,167.4,101L167.4,101z M108.7,160.3
				c-3.2,0-5.8,2.6-5.8,5.8s2.6,5.8,5.8,5.8c3.2,0,5.8-2.6,5.8-5.8l0,0C114.5,162.9,111.9,160.3,108.7,160.3L108.7,160.3z
				 M71.6,91.2c-8.6-0.1-15.7,6.9-15.8,15.5s6.9,15.7,15.5,15.8c8.6,0.1,15.7-6.9,15.8-15.5v-0.1C87.1,98.2,80.2,91.2,71.6,91.2
				L71.6,91.2z M37.5,131.4c-5-0.1-9,3.9-9.1,8.8c-0.1,5,3.9,9,8.8,9.1c5,0.1,9-3.9,9.1-8.8c0-0.1,0-0.1,0-0.2
				C46.3,135.4,42.4,131.4,37.5,131.4z M71.7,132c-5,0-9,4-9,9s4,9,9,9s9-4,9-9l0,0C80.7,136,76.7,132,71.7,132z M37.5,97.8
				c-4.9,0-8.8,3.9-8.8,8.8s3.9,8.8,8.8,8.8s8.8-3.9,8.8-8.8l0,0C46.3,101.8,42.3,97.8,37.5,97.8z M12.1,101c-3.2,0-5.8,2.6-5.8,5.8
				s2.6,5.8,5.8,5.8s5.8-2.6,5.8-5.8l0,0C17.9,103.6,15.3,101,12.1,101z M71.7,160.3c-3.2,0-5.8,2.6-5.8,5.8s2.6,5.8,5.8,5.8
				c3.2,0,5.8-2.6,5.8-5.8l0,0C77.5,162.9,74.9,160.3,71.7,160.3L71.7,160.3z M12.1,73.7c3.2,0,5.8-2.6,5.8-5.8
				c0-3.2-2.6-5.8-5.8-5.8s-5.8,2.6-5.8,5.8l0,0C6.4,71.1,9,73.7,12.1,73.7z M73.2,17.9c3.2,0,5.8-2.6,5.8-5.8s-2.6-5.8-5.8-5.8
				c-3.2,0-5.8,2.6-5.8,5.8l0,0C67.4,15.3,70,17.9,73.2,17.9z M105.6,17.9c3.2,0,5.8-2.6,5.8-5.8s-2.6-5.8-5.8-5.8
				c-3.2,0-5.8,2.6-5.8,5.8l0,0C99.8,15.3,102.4,17.9,105.6,17.9z"/>
		</g>
	</g>
</g>
</svg>
