<?xml version="1.0" encoding="utf-8"?>
<!-- Generator: Adobe Illustrator 25.4.1, SVG Export Plug-In . SVG Version: 6.00 Build 0)  -->
<svg version="1.1" id="Layer1" xmlns="http://www.w3.org/2000/svg" xmlns:xlink="http://www.w3.org/1999/xlink" x="0px" y="0px"
	 viewBox="0 0 504 360" style="enable-background:new 0 0 504 360;" xml:space="preserve">
<style type="text/css">
	.st0{enable-background:new;}
	.st1{fill:#30E66C;}
	.st2{fill:#9647E6;}
</style>
<g id="Background_xA0_Image_00000140734414184443623860000001515904447258263479_">
	
		<image style="overflow:visible;enable-background:new    ;" width="2100" height="1500" id="Background_xA0_Image" xlink:href="D140A0C9.jpg"  transform="matrix(0.24 0 0 0.24 0 0)">
	</image>
</g>
<g id="Rectangle_1_00000120556454380427005650000016382518964139272870_" class="st0">
</g>
<g id="Frame_2_00000011020252997496200360000001902706158112607383_">
</g>
<g id="Logo_00000175320205884402312930000013976524688123962035_">
	<g id="Sector_00000031170680092810005950000005407856915834902679_">
		<g id="Frame_4_00000002378128492676977340000013087134861704253856_">
		</g>
		<g id="Frame_5_00000028293517219296426520000005990588928719646366_">
		</g>
		<g id="Frame_6_00000070808576582099052590000003896591679113008290_">
		</g>
		<g id="Frame_7_00000119104533966052366300000007701676424133854888_">
		</g>
		<g id="Frame_8_00000009583323632617358800000012957657347984755114_">
		</g>
		<g id="Frame_9_00000120549748536929063460000011455212580872365714_">
		</g>
	</g>
	<g id="Sector_2_00000068655327861697360520000017584524568855935653_">
		<g id="Frame_4_00000033346343584738542000000015144932813137629835_">
		</g>
		<g id="Frame_5_00000181079012582991401350000017645493964547774123_">
		</g>
		<g id="Frame_6_00000005260943386308259630000004014055768138899099_">
		</g>
		<g id="Frame_7_00000125572237977741772940000015656480833166185146_">
		</g>
		<g id="Frame_8_00000060752423972557508220000015783180861294255011_">
		</g>
		<g id="Frame_9_00000020368038215668620300000004514122132361868700_">
		</g>
	</g>
	<g id="Sector_3_00000000942658731292464400000015774063375092442250_">
		<g id="Frame_4_00000072251549793462028800000012787542365597783734_">
		</g>
		<g id="Frame_5_00000011721298576808657880000002728100629099219614_">
		</g>
		<g id="Frame_6_00000043423328551035592790000016193238140115257741_">
		</g>
		<g id="Frame_7_00000157304527836939631900000013510050445517760393_">
		</g>
		<g id="Frame_8_00000158738999715578580010000013845750656786008967_">
		</g>
		<g id="Frame_9_00000096055379690505984050000003927033752349929383_">
		</g>
	</g>
	<g id="Sector_4_00000136385306735640684700000003546950890970641320_">
		<g id="Frame_4_00000155829261120838808320000011612537240101484436_">
		</g>
		<g id="Frame_5_00000031209074423011769900000005178845530114599096_">
		</g>
		<g id="Frame_6_00000112617774848697403670000007527532054090779052_">
		</g>
		<g id="Frame_7_00000067225395032543201550000014990823872130478516_">
		</g>
		<g id="Frame_8_00000168083159081409374630000005373191557236765601_">
		</g>
		<g id="Frame_9_00000095297085395775349760000009500738157956365460_">
		</g>
		<g>
			<path class="st1" d="M229.5,128.8c9.2,0,16.6-7.4,16.6-16.6s-7.4-16.6-16.6-16.6c-9.2,0-16.6,7.4-16.6,16.6
				S220.3,128.8,229.5,128.8z M194.2,67.4c-5.2,0-9.5,4.3-9.5,9.5c0,5.2,4.3,9.5,9.5,9.5c5.2,0,9.5-4.3,9.5-9.5
				C203.7,71.6,199.4,67.4,194.2,67.4z M232.8,86.3c5.2,0,9.5-4.3,9.5-9.5c0-5.2-4.3-9.5-9.5-9.5s-9.5,4.3-9.5,9.5
				C223.3,82.1,227.6,86.3,232.8,86.3z M194.2,102.8c-5.2,0-9.5,4.3-9.5,9.5s4.3,9.5,9.5,9.5c5.2,0,9.5-4.3,9.5-9.5
				C203.7,107.1,199.4,102.8,194.2,102.8z M271.3,131.3c9.4,0,16.9-7.7,16.9-17.1s-7.6-17.1-16.9-17.1c-9.4,0-16.9,7.7-16.9,17.1
				C254.3,123.6,261.9,131.3,271.3,131.3z M307.7,68c-5.3,0-9.7,4.4-9.7,9.8c0,5.4,4.3,9.8,9.7,9.8c5.3,0,9.7-4.4,9.7-9.8
				C317.3,72.4,313,68,307.7,68z M268.3,87.6c5.4,0,9.8-4.4,9.8-9.8c0-5.4-4.4-9.8-9.8-9.8c-5.4,0-9.8,4.4-9.8,9.8
				C258.5,83.2,262.9,87.6,268.3,87.6z M307.7,104.7c-5.3,0-9.7,4.3-9.7,9.7s4.3,9.7,9.7,9.7c5.3,0,9.7-4.3,9.7-9.7
				C317.3,109,313,104.7,307.7,104.7z M336,120.5c3.5,0,6.3-2.8,6.3-6.3c0-3.5-2.8-6.3-6.3-6.3s-6.3,2.8-6.3,6.3
				C329.7,117.7,332.5,120.5,336,120.5z M271.6,137.6c-9.4,0-16.9,7.7-16.9,17.1c0,9.4,7.6,17.1,16.9,17.1c9.4,0,16.9-7.7,16.9-17.1
				C288.5,145.3,281,137.6,271.6,137.6z M307.7,181.6c-5.3,0-9.7,4.4-9.7,9.8c0,5.4,4.3,9.8,9.7,9.8c5.3,0,9.7-4.4,9.7-9.8
				C317.3,186,313,181.6,307.7,181.6z M271.8,181.6c-5.4,0-9.8,4.4-9.8,9.8c0,5.4,4.4,9.8,9.8,9.8s9.8-4.4,9.8-9.8
				C281.6,186,277.2,181.6,271.8,181.6z M307.7,144.9c-5.3,0-9.7,4.3-9.7,9.7c0,5.3,4.3,9.7,9.7,9.7c5.3,0,9.7-4.3,9.7-9.7
				C317.3,149.2,313,144.9,307.7,144.9z M336,148.4c-3.5,0-6.3,2.8-6.3,6.3s2.8,6.3,6.3,6.3s6.3-2.8,6.3-6.3
				C342.4,151.2,339.5,148.4,336,148.4z M271.8,213.3c-3.5,0-6.3,2.8-6.3,6.3s2.8,6.3,6.3,6.3s6.3-2.8,6.3-6.3
				C278.1,216.1,275.3,213.3,271.8,213.3z M231.1,137.6c-9.4,0-16.9,7.7-16.9,17.1c0,9.4,7.6,17.1,16.9,17.1
				c9.4,0,16.9-7.7,16.9-17.1C248,145.3,240.4,137.6,231.1,137.6z M193.7,181.6c-5.3,0-9.7,4.4-9.7,9.8c0,5.4,4.3,9.8,9.7,9.8
				c5.3,0,9.7-4.4,9.7-9.8C203.4,186,199.1,181.6,193.7,181.6z M231.2,182.3c-5.4,0-9.8,4.4-9.8,9.8c0,5.4,4.4,9.8,9.8,9.8
				c5.4,0,9.8-4.4,9.8-9.8S236.7,182.3,231.2,182.3z M193.7,144.9c-5.3,0-9.7,4.3-9.7,9.7c0,5.3,4.3,9.7,9.7,9.7
				c5.3,0,9.7-4.3,9.7-9.7C203.4,149.2,199.1,144.9,193.7,144.9z M166,148.4c-3.5,0-6.3,2.8-6.3,6.3s2.8,6.3,6.3,6.3
				c3.5,0,6.3-2.8,6.3-6.3C172.4,151.2,169.5,148.4,166,148.4z M231.2,213.3c-3.5,0-6.3,2.8-6.3,6.3s2.8,6.3,6.3,6.3
				c3.5,0,6.3-2.8,6.3-6.3S234.7,213.3,231.2,213.3z M166,118.5c3.5,0,6.3-2.8,6.3-6.3c0-3.5-2.8-6.3-6.3-6.3
				c-3.5,0-6.3,2.8-6.3,6.3C159.7,115.6,162.5,118.5,166,118.5z M232.8,57.4c3.5,0,6.3-2.8,6.3-6.3s-2.8-6.3-6.3-6.3
				s-6.3,2.8-6.3,6.3S229.3,57.4,232.8,57.4z M268.3,57.4c3.5,0,6.3-2.8,6.3-6.3s-2.8-6.3-6.3-6.3c-3.5,0-6.3,2.8-6.3,6.3
				C261.9,54.5,264.8,57.4,268.3,57.4z"/>
			<g>
				<path class="st2" d="M126.1,285.1v6.7H95.8v-5.6l20-25.6H95.9V254h30v5.6l-20,25.6H126.1z"/>
				<path class="st2" d="M133.7,254h27.9v6.7H141v8.6h17.7v6.7H141v9.1h20.9v6.7h-28.1V254z"/>
				<path class="st2" d="M176.5,291.8h-7V254h6.4l19.9,25.4V254h7v37.8h-6.4l-19.9-25.3L176.5,291.8L176.5,291.8z"/>
				<path class="st2" d="M232.3,291.8h-7.2V254h7.2l13.6,23.9l13.5-23.9h7.2v37.8h-7.2v-24.1l-11.1,19.8h-4.8l-11.1-19.8
					L232.3,291.8L232.3,291.8z"/>
				<path class="st2" d="M275.6,254h27.9v6.7h-20.6v8.6h17.7v6.7h-17.7v9.1h20.9v6.7h-28.1V254z"/>
				<path class="st2" d="M326.8,291.8h-15.3V254h15.3c5.6,0,10.3,1.8,14,5.5c3.8,3.6,5.7,8.1,5.7,13.5c0,5.3-1.9,9.8-5.7,13.5
					C337.1,290,332.4,291.8,326.8,291.8z M326.8,260.7h-8.1v24.4h8.1c3.5,0,6.4-1.2,8.7-3.5c2.3-2.4,3.5-5.3,3.5-8.7
					c0-3.5-1.2-6.4-3.5-8.7C333.1,261.9,330.2,260.7,326.8,260.7z"/>
				<path class="st2" d="M361.7,291.8h-7.2V254h7.2V291.8z"/>
				<path class="st2" d="M375.6,291.8H368l16.2-37.8h5.9l16.2,37.8h-7.6l-3-7.1h-17.1L375.6,291.8z M392.9,278.1l-5.7-13.7
					l-5.8,13.7H392.9z"/>
			</g>
			<g>
				<path class="st2" d="M150.6,326.8h-7.3v-14.7h6.9c1.2,0,2.1,0.4,2.9,1.1c0.8,0.7,1.2,1.6,1.2,2.7c0,1.4-0.6,2.4-1.8,3.2
					c0.8,0.3,1.4,0.8,1.9,1.5c0.5,0.7,0.7,1.4,0.7,2.3c0,1.2-0.4,2.2-1.3,2.9C152.9,326.4,151.8,326.8,150.6,326.8z M150.2,313.4
					h-5.5v5.1h5.5c0.7,0,1.3-0.2,1.8-0.7c0.5-0.5,0.7-1.1,0.7-1.8c0-0.7-0.2-1.3-0.7-1.8C151.5,313.6,150.9,313.4,150.2,313.4z
					 M150.6,319.8h-5.9v5.7h5.9c0.8,0,1.5-0.3,2.1-0.8c0.6-0.5,0.8-1.2,0.8-2c0-0.8-0.3-1.5-0.8-2
					C152.1,320,151.4,319.8,150.6,319.8z"/>
				<path class="st2" d="M162.1,312.1h10.5v1.3h-9.1v5.3h8v1.3h-8v5.5h9.2v1.3h-10.6L162.1,312.1L162.1,312.1z"/>
				<path class="st2" d="M189.2,315.2l-1.4,0.4c-0.1-0.7-0.5-1.2-1.2-1.7c-0.7-0.4-1.5-0.7-2.4-0.7c-1,0-1.9,0.3-2.5,0.8
					c-0.7,0.5-1,1.1-1,1.9c0,0.6,0.3,1.1,0.8,1.6c0.3,0.2,0.6,0.4,0.9,0.5c0.7,0.3,1.5,0.5,2.4,0.7c1.1,0.3,1.9,0.5,2.6,0.8
					c1.3,0.6,2.1,1.7,2.1,3.2c0,1.3-0.5,2.3-1.5,3.1c-1,0.8-2.3,1.2-3.8,1.2c-1.4,0-2.6-0.3-3.6-1c-1-0.6-1.6-1.5-1.8-2.5l1.4-0.4
					c0.1,0.7,0.6,1.4,1.3,1.8c0.7,0.5,1.6,0.7,2.7,0.7c1.1,0,2-0.3,2.8-0.8c0.7-0.5,1.1-1.2,1.1-2c0-0.6-0.3-1.2-0.8-1.6
					c-0.2-0.2-0.5-0.4-0.9-0.5c-0.5-0.3-1.2-0.5-2.1-0.7c-0.2,0-0.4-0.1-0.7-0.2c-0.3-0.1-0.4-0.1-0.4-0.1c-0.3-0.1-0.6-0.2-1-0.3
					c-0.5-0.2-0.8-0.3-1-0.4c-0.7-0.4-1.3-0.8-1.5-1.2c-0.4-0.6-0.6-1.2-0.6-1.9c0-1.2,0.5-2.2,1.4-2.9c0.9-0.8,2.1-1.1,3.5-1.1
					c1.3,0,2.4,0.3,3.3,0.9C188.4,313.4,189,314.2,189.2,315.2z"/>
				<path class="st2" d="M201.1,313.4h-5.9v-1.3h13.1v1.3h-5.9v13.4h-1.4L201.1,313.4L201.1,313.4z"/>
				<path class="st2" d="M226.5,326.8h-1.4v-14.7h1.4L226.5,326.8L226.5,326.8z"/>
				<path class="st2" d="M235.8,326.8h-1.3v-14.7h1.2l9.9,12.3v-12.3h1.3v14.7h-1.2l-9.9-12.3V326.8z"/>
				<path class="st2" d="M265,312.1h10.5v1.3h-9.1v5.2h8v1.3h-8v6.9H265V312.1z"/>
				<path class="st2" d="M280.8,326.8h-1.5l6.5-14.7h1.1l6.5,14.7H292l-1.6-3.6h-8.1L280.8,326.8z M289.9,321.9l-3.5-7.8l-3.5,7.8
					H289.9z"/>
				<path class="st2" d="M301.5,326.8h-1.4v-14.7h1.4l6.3,10.9l6.3-10.9h1.4v14.7H314v-12.1l-5.8,10.2h-0.9l-5.8-10.1L301.5,326.8
					L301.5,326.8z"/>
				<path class="st2" d="M324.8,326.8h-1.4v-14.7h1.4V326.8z"/>
				<path class="st2" d="M332.7,312.1h1.4v13.4h8.3v1.3h-9.7L332.7,312.1L332.7,312.1z"/>
				<path class="st2" d="M351.6,320.8l-5.8-8.8h1.6l4.9,7.4l4.9-7.4h1.6l-5.8,8.7v6h-1.4V320.8z"/>
			</g>
		</g>
	</g>
	<g id="Frame_3_00000082330081942973692520000014353202192332945306_">
	</g>
</g>
</svg>
