<?xml version="1.0" encoding="utf-8"?>
<!-- Generator: Adobe Illustrator 25.4.1, SVG Export Plug-In . SVG Version: 6.00 Build 0)  -->
<svg version="1.1" id="Layer_1" xmlns="http://www.w3.org/2000/svg" xmlns:xlink="http://www.w3.org/1999/xlink" x="0px" y="0px"
	 viewBox="0 0 302.6 36.9" style="enable-background:new 0 0 302.6 36.9;" xml:space="preserve">
<style type="text/css">
	.st0{fill:#272525;}
</style>
<g id="Layer_2_00000062183197304383792180000003467055804611070102_">
	<g id="Logo">
		<g id="Sector_4">
			<path class="st0" d="M48.3,29.2v5.7H22.7v-4.7L39.5,8.6H22.8V3h25.3v4.7L31.2,29.2H48.3z"/>
			<path class="st0" d="M54.7,3h23.5v5.7H60.8v7.3h14.9v5.7H60.8v7.7h17.6v5.7H54.7V3z"/>
			<path class="st0" d="M90.8,34.9h-5.9V3h5.4l16.8,21.4V3h5.9v31.9h-5.4L90.8,13.5V34.9z"/>
			<path class="st0" d="M137.9,34.9h-6.1V3h6.1l11.4,20.1L160.7,3h6.1v31.9h-6.1V14.5l-9.4,16.7h-4l-9.4-16.7V34.9z"/>
			<path class="st0" d="M174.4,3h23.5v5.7h-17.4v7.3h14.9v5.7h-14.9v7.7h17.6v5.7h-23.8V3z"/>
			<path class="st0" d="M217.6,34.9h-13V3h13c4.4-0.1,8.7,1.5,11.8,4.6c3.1,2.9,4.9,7.1,4.8,11.4c0.1,4.3-1.7,8.4-4.8,11.4
				C226.2,33.3,222,35,217.6,34.9z M217.6,8.6h-6.8v20.6h6.8c2.7,0.1,5.4-1,7.3-3c1.9-2,3-4.6,2.9-7.3c0.1-5.6-4.3-10.2-9.9-10.3
				C217.8,8.6,217.7,8.6,217.6,8.6L217.6,8.6z"/>
			<path class="st0" d="M247,34.9h-6.1V3h6.1V34.9z"/>
			<path class="st0" d="M258.8,34.9h-6.4L266,3h5l13.7,31.9h-6.4l-2.5-6h-14.4L258.8,34.9z M273.3,23.2l-4.8-11.6l-4.9,11.6H273.3z"
				/>
		</g>
	</g>
</g>
</svg>
