<svg xmlns="http://www.w3.org/2000/svg" viewBox="0 0 60 60"><defs><style>.cls-1{fill:#30e66c;}.cls-2{fill:#9647e6;}</style></defs><g id="Layer_2" data-name="Layer 2"><g id="Layer_1-2" data-name="Layer 1"><g id="Layer_2-2" data-name="Layer 2"><g id="Logo"><g id="Sector_4" data-name="Sector 4"><path class="cls-1" d="M25.84,17.86a3.38,3.38,0,0,0,3.21-3.53,3.38,3.38,0,0,0-3.21-3.53,3.38,3.38,0,0,0-3.21,3.53h0A3.38,3.38,0,0,0,25.84,17.86ZM19,4.81a1.94,1.94,0,0,0-1.84,2,1.94,1.94,0,0,0,1.84,2,1.94,1.94,0,0,0,1.84-2,1.94,1.94,0,0,0-1.84-2Zm7.46,4a1.94,1.94,0,0,0,1.84-2,1.84,1.84,0,1,0-3.67,0h0A1.94,1.94,0,0,0,26.48,8.85ZM19,12.34a1.93,1.93,0,0,0-1.84,2,1.94,1.94,0,0,0,1.84,2,1.94,1.94,0,0,0,1.84-2h0a1.93,1.93,0,0,0-1.84-2Zm14.89,6.05a3.47,3.47,0,0,0,3.34-3.6A3.5,3.5,0,0,0,34,11.12a3.48,3.48,0,0,0-3.33,3.6v0A3.48,3.48,0,0,0,33.9,18.4h0ZM41,4.93A2,2,0,0,0,39,7a1.9,1.9,0,1,0,3.79,0V7A2,2,0,0,0,41,5h0ZM33.33,9.12A2,2,0,0,0,35.23,7a1.9,1.9,0,1,0-3.79,0h0A2,2,0,0,0,33.33,9.12ZM41,12.75a2,2,0,0,0-1.86,2.06,1.87,1.87,0,1,0,3.73,0A2,2,0,0,0,41,12.75Zm5.47,3.36a1.35,1.35,0,1,0-1.22-1.34h0A1.29,1.29,0,0,0,46.42,16.11ZM34,19.75a3.47,3.47,0,0,0-3.34,3.6A3.49,3.49,0,0,0,33.92,27a3.47,3.47,0,0,0,3.33-3.6v0A3.46,3.46,0,0,0,34,19.75Zm7,9.35a2.09,2.09,0,1,0,1.87,2.11v0A2,2,0,0,0,41,29.1ZM34,29.1a2.09,2.09,0,1,0,1.89,2.09h0A2,2,0,0,0,34,29.1ZM41,21.29a2.07,2.07,0,1,0,1.86,2.06A2,2,0,0,0,41,21.29Zm5.47.74a1.36,1.36,0,1,0,1.23,1.35h0A1.3,1.3,0,0,0,46.42,22ZM34,35.82a1.36,1.36,0,1,0,1.22,1.35h0A1.3,1.3,0,0,0,34,35.82ZM26.15,19.75a3.47,3.47,0,0,0-3.34,3.6A3.49,3.49,0,0,0,26.08,27a3.47,3.47,0,0,0,3.34-3.59v0a3.46,3.46,0,0,0-3.27-3.63ZM18.93,29.1a2.1,2.1,0,1,0,1.86,2.12v0a2,2,0,0,0-1.86-2.08Zm7.25.13a2.1,2.1,0,1,0,1.89,2.09h0a2,2,0,0,0-1.89-2.09h0Zm-7.25-7.94a2.06,2.06,0,0,0,0,4.11,2,2,0,0,0,1.86-2h0A2,2,0,0,0,18.93,21.29ZM13.58,22a1.36,1.36,0,0,0,0,2.7,1.3,1.3,0,0,0,1.22-1.35h0A1.3,1.3,0,0,0,13.58,22ZM26.17,35.82a1.36,1.36,0,1,0,1.22,1.35h0A1.3,1.3,0,0,0,26.17,35.82ZM13.58,15.68a1.35,1.35,0,1,0-1.23-1.35h0A1.3,1.3,0,0,0,13.58,15.68Zm12.9-13a1.29,1.29,0,0,0,1.23-1.34,1.23,1.23,0,1,0-2.45,0h0A1.29,1.29,0,0,0,26.48,2.69Zm6.85,0a1.28,1.28,0,0,0,1.23-1.34,1.23,1.23,0,1,0-2.44,0h0A1.28,1.28,0,0,0,33.33,2.69Z"/><path class="cls-2" d="M5.86,51.1v1.42H0V51.34l3.86-5.43H0V44.48H5.82v1.19L2,51.1Z"/><path class="cls-2" d="M7.34,44.48h5.38v1.43h-4v1.84h3.41v1.43H8.74v1.93h4v1.42H7.34Z"/><path class="cls-2" d="M15.61,52.52H14.26v-8H15.5l3.85,5.4v-5.4H20.7v8H19.46l-3.85-5.38Z"/><path class="cls-2" d="M26.39,52.52H25v-8h1.4L29,49.56l2.61-5.08H33v8H31.62V47.4l-2.15,4.21h-.92l-2.15-4.2Z"/><path class="cls-2" d="M34.75,44.48h5.39v1.43h-4v1.84h3.41v1.43H36.15v1.93h4v1.42H34.75Z"/><path class="cls-2" d="M44.64,52.52h-3v-8h3a3.58,3.58,0,0,1,2.71,1.16,4.3,4.3,0,0,1,.07,5.65l-.07.07A3.56,3.56,0,0,1,44.64,52.52Zm0-6.61H43.07V51.1h1.57a2.19,2.19,0,0,0,1.67-.75A2.68,2.68,0,0,0,47,48.5a2.43,2.43,0,0,0-2.27-2.59Z"/><path class="cls-2" d="M51.38,52.52H50v-8h1.4Z"/><path class="cls-2" d="M54.07,52.52H52.6l3.13-8h1.14l3.13,8H58.53L58,51h-3.3Zm3.34-2.93L56.3,46.68l-1.11,2.91Z"/><path class="cls-2" d="M10.59,60H9.18V56.82h1.33a.71.71,0,0,1,.55.23.85.85,0,0,1,0,1.11l-.16.13a.8.8,0,0,1,.37.31.81.81,0,0,1,.13.48.84.84,0,0,1-.24.63A.81.81,0,0,1,10.59,60Zm-.08-2.85H9.45v1.08h1.06a.48.48,0,0,0,.35-.16.54.54,0,0,0,.15-.38.54.54,0,0,0-.15-.39A.44.44,0,0,0,10.51,57.1Zm.08,1.35H9.45v1.22h1.14a.51.51,0,0,0,.4-.17.57.57,0,0,0,.16-.44.56.56,0,0,0-.16-.43.52.52,0,0,0-.4-.18Z"/><path class="cls-2" d="M12.82,56.82h2v.28H13.08v1.12h1.56v.28H13.08v1.17h1.79V60h-2Z"/><path class="cls-2" d="M18.06,57.48l-.27.08a.54.54,0,0,0-.23-.35.71.71,0,0,0-.46-.14.74.74,0,0,0-.49.16.51.51,0,0,0-.2.4.42.42,0,0,0,.16.33.78.78,0,0,0,.18.11,3.53,3.53,0,0,0,.46.15,2.13,2.13,0,0,1,.5.18.72.72,0,0,1,.42.68.84.84,0,0,1-.29.67,1.08,1.08,0,0,1-.73.25,1.18,1.18,0,0,1-.69-.22.85.85,0,0,1-.35-.54l.27-.08a.59.59,0,0,0,.25.39.91.91,0,0,0,.52.16,1,1,0,0,0,.54-.17.55.55,0,0,0,.21-.44.46.46,0,0,0-.14-.34.62.62,0,0,0-.17-.11,1.9,1.9,0,0,0-.4-.14l-.12,0-.08,0-.2-.07-.2-.08a.67.67,0,0,1-.41-.66.83.83,0,0,1,.27-.62.94.94,0,0,1,.67-.24,1,1,0,0,1,.64.19A.86.86,0,0,1,18.06,57.48Z"/><path class="cls-2" d="M20.35,57.1H19.21v-.28h2.54v.28H20.62V60h-.27Z"/><path class="cls-2" d="M25.27,60H25V56.82h.27Z"/><path class="cls-2" d="M27.07,60h-.26V56.82H27l1.9,2.62V56.82h.26V60H29l-1.9-2.62Z"/><path class="cls-2" d="M32.71,56.82h2v.28H33v1.1h1.55v.28H33V60h-.27Z"/><path class="cls-2" d="M35.75,60h-.28l1.27-3.13H37L38.21,60h-.28l-.31-.76H36.06Zm1.76-1-.67-1.66-.67,1.66Z"/><path class="cls-2" d="M39.74,60h-.26V56.82h.26L41,59.14l1.21-2.32h.27V60h-.27V57.38L41,59.54h-.18l-1.12-2.16Z"/><path class="cls-2" d="M44.25,60H44V56.82h.27Z"/><path class="cls-2" d="M45.78,56.82h.27v2.85h1.6V60H45.78Z"/><path class="cls-2" d="M49.43,58.68l-1.12-1.86h.31l.94,1.58.95-1.58h.31L49.7,58.67V60h-.27Z"/></g></g></g></g></g></svg>